PathFileType	4	(X/Y/Z)	KinectAzureSkeleton.trc
DateRate	CameraRate	NumFrames	NumMarkers	Units	OrigDateRate	OrigDataStartFrame	OrigNumFrames
30	30	7	32	mm	30	69	183
Frame#	Time			PELVIS			SPINE_NAVAL			SPINE_CHEST			NECK			CLAVICLE_LEFT			SHOULDER_LEFT			ELBOW_LEFT			WRIST_LEFT			HAND_LEFT			HANDTIP_LEFT			THUMB_LEFT			CLAVICLE_RIGHT			SHOULDER_RIGHT			ELBOW_RIGHT			WRIST_RIGHT			HAND_RIGHT			HANDTIP_RIGHT			THUMB_RIGHT			HIP_LEFT			KNEE_LEFT			ANKLE_LEFT			FOOT_LEFT			HIP_RIGHT			KNEE_RIGHT			ANKLE_RIGHT			FOOT_RIGHT			HEAD			NOSE			EYE_LEFT			EAR_LEFT			EYE_RIGHT			EAR_RIGHT
		X1	Y1	Z1	X2	Y2	Z2	X3	Y3	Z3	X4	Y4	Z4	X5	Y5	Z5	X6	Y6	Z6	X7	Y7	Z7	X8	Y8	Z8	X9	Y9	Z9	X10	Y10	Z10	X11	Y11	Z11	X12	Y12	Z12	X13	Y13	Z13	X14	Y14	Z14	X15	Y15	Z15	X16	Y16	Z16	X17	Y17	Z17	X18	Y18	Z18	X19	Y19	Z19	X20	Y20	Z20	X21	Y21	Z21	X22	Y22	Z22	X23	Y23	Z23	X24	Y24	Z24	X25	Y25	Z25	X26	Y26	Z26	X27	Y27	Z27	X28	Y28	Z28	X29	Y29	Z29	X30	Y30	Z30	X31	Y31	Z31	X32	Y32	Z32

68	2.317733	-4221.588867	89.350967	252.819214	-4221.815430	263.791687	244.741257	-4230.051758	402.793121	234.709579	-4227.430176	613.924011	210.703125	-4238.136230	578.340027	192.522232	-4205.474121	538.963318	62.285259	-4208.750000	268.605682	54.488014	-4143.572754	54.817616	94.322403	-4133.699707	-36.959400	113.380226	-4159.051758	-127.593681	161.639496	-4127.140137	-52.672886	185.764160	-4239.886230	582.494385	242.333405	-4217.359375	567.701721	368.206085	-4264.320801	307.651062	446.485535	-4193.183105	89.656815	462.954071	-4185.435059	-10.056503	480.169312	-4158.540527	-98.242142	432.127899	-4130.226563	-37.842049	436.503326	-4226.828125	85.222717	163.817963	-4298.149902	-299.106842	191.308975	-4424.764160	-649.732239	227.037369	-4297.084961	-781.251221	221.946671	-4216.864258	93.070404	333.075653	-4068.614014	-269.052032	343.588898	-4085.818359	-646.918884	355.103119	-3953.576172	-750.044495	336.638794	-4196.191895	687.251099	204.346283	-4042.479492	711.770996	226.933426	-4059.288086	738.989136	182.456589	-4157.862793	737.865662	107.094048	-4067.730957	749.596069	249.211166	-4188.474609	768.124084	288.260559
69	2.351066	-4194.725098	83.893349	247.587524	-4191.688477	257.562134	239.345505	-4203.004883	395.768646	229.517212	-4216.293457	605.677795	206.265564	-4224.543945	569.592651	188.189011	-4189.465820	531.397644	58.864712	-4176.118652	262.451385	52.673985	-4091.658691	56.436554	91.794403	-4090.827881	-35.921654	108.471703	-4141.656738	-114.026405	157.543991	-4101.280273	-54.185120	179.464615	-4225.919434	573.476318	237.821945	-4195.791504	562.517090	361.930298	-4242.376465	305.233032	445.322876	-4181.547852	86.272774	472.970551	-4170.406250	-13.046093	487.938080	-4150.273438	-97.850441	432.082489	-4123.329102	-40.068546	435.669586	-4200.105957	79.781883	158.971756	-4279.165527	-301.277008	187.292114	-4420.536133	-644.258118	225.277802	-4307.148438	-787.363586	222.802155	-4189.871094	87.597649	327.496338	-4045.649414	-274.346039	338.790100	-4011.902344	-649.622925	344.615509	-3866.653076	-732.729919	329.789093	-4190.767578	680.813599	199.761444	-4043.291016	731.871277	212.960236	-4067.138672	755.186768	169.786545	-4167.886719	736.159058	100.823875	-4073.279297	764.770081	236.654480	-4192.343750	762.268433	282.763458
70	2.384400	-4168.639648	82.315712	245.071686	-4167.812500	257.588196	237.758530	-4174.185547	397.369781	228.316803	-4167.765137	609.300110	203.456879	-4179.224121	573.692932	185.348572	-4148.521484	531.710205	54.759876	-4136.018555	260.294220	51.144768	-4068.234863	44.970097	83.607597	-4051.484619	-30.627766	138.101563	-4131.718262	-98.256218	121.434547	-4112.676758	-60.768314	168.550552	-4180.755859	578.068420	235.377853	-4154.800293	565.491577	361.434784	-4210.944824	306.832275	442.671661	-4163.456055	82.014191	465.906067	-4146.520508	-18.267303	473.007843	-4115.626465	-108.451736	430.352570	-4086.271729	-35.754486	430.071167	-4174.598633	78.614326	155.687256	-4264.328613	-303.488403	185.793015	-4419.558594	-643.667908	227.190399	-4305.409668	-788.146851	221.758972	-4163.265137	85.650208	325.673615	-4026.492188	-282.955566	332.722900	-3945.341064	-654.350891	330.339905	-3791.012207	-721.196167	309.380310	-4135.067383	682.356873	196.723389	-3979.554199	701.877136	216.731873	-3996.040771	728.565857	171.510315	-4096.076660	728.988770	97.135071	-4003.199463	741.400085	238.342606	-4123.179199	765.583496	278.569061
71	2.417733	-4135.209961	76.091995	242.846481	-4134.204590	251.083160	236.512314	-4143.534180	390.514862	228.199142	-4153.119141	602.359741	207.261841	-4162.449219	566.393494	188.817459	-4130.048828	527.696777	57.898506	-4119.739258	256.688141	53.855053	-4040.701904	45.826897	87.247887	-4014.038086	-36.501625	125.244812	-4075.662598	-117.071388	156.210663	-4056.840332	-59.515694	181.797653	-4162.917969	569.783020	238.853043	-4129.671875	561.543518	363.305511	-4188.070801	302.458374	439.743683	-4143.680176	77.817467	466.403168	-4126.437988	-22.282400	472.622650	-4086.151123	-102.426949	419.505707	-4064.229004	-38.644901	432.365967	-4142.578613	72.907898	153.710571	-4244.861816	-305.220184	184.628082	-4411.171875	-639.165161	227.532104	-4305.937012	-789.898132	223.548874	-4128.564453	78.960030	323.224274	-4008.466309	-294.638916	331.385284	-3901.148438	-658.552795	324.220276	-3742.619385	-713.787598	303.281189	-4126.034668	677.570251	201.080673	-3980.874023	738.483521	210.735291	-4007.715332	760.942627	168.388443	-4109.802734	736.116821	101.721947	-4012.423584	769.203369	236.028229	-4130.398438	758.112366	285.996826
72	2.451066	-4106.296387	72.108635	241.680969	-4101.860352	246.218628	234.705292	-4111.477539	384.976135	226.221008	-4122.772461	595.767029	205.415695	-4131.938477	559.892029	187.138535	-4101.023438	523.560547	55.870758	-4100.364258	253.570831	55.076283	-4017.948730	46.922417	98.141243	-4006.093994	-42.741043	124.043358	-4047.860107	-131.313568	163.484192	-4032.172119	-58.725479	191.670593	-4132.028809	563.275208	236.946274	-4094.672119	552.325562	359.395538	-4153.741211	294.998810	436.684601	-4106.425293	71.820526	461.411774	-4121.772949	-24.710863	488.008179	-4128.914551	-120.947830	449.855042	-4084.229492	-69.194916	439.869873	-4114.316406	68.760773	153.019424	-4214.650879	-308.115692	182.746246	-4403.443848	-627.477661	228.516006	-4316.823242	-788.678284	232.086121	-4099.063477	75.124336	321.631012	-3972.511475	-294.478302	327.620117	-3883.141602	-661.444763	321.833374	-3728.414307	-722.819763	296.305664	-4096.427246	670.831909	199.030533	-3953.496338	734.933472	209.495178	-3980.132324	755.928345	166.596970	-4080.237793	727.727905	99.330887	-3985.933838	765.217468	233.700836	-4103.761719	752.349792	282.051178
73	2.484400	-4074.441406	69.713257	236.089218	-4071.978027	244.072525	231.717346	-4075.993164	383.298859	224.937317	-4069.092773	594.831299	208.677887	-4081.726563	560.285767	189.848618	-4064.373047	520.925720	56.864964	-4078.362061	251.105911	55.470966	-4011.638672	40.095760	104.938194	-4016.475586	-49.466938	133.553787	-4038.583252	-148.057297	164.413193	-3994.738037	-60.372593	203.735764	-4080.587891	562.558838	239.742371	-4057.683838	539.323486	364.114899	-4127.269531	284.183289	440.600006	-4070.632568	61.913937	451.695587	-4085.474609	-36.096645	472.899872	-4074.344238	-127.209885	424.338470	-4036.882324	-77.187477	432.104828	-4085.913086	67.659187	147.703735	-4179.902832	-311.045349	178.615723	-4390.886719	-613.742004	240.188065	-4322.543945	-783.377197	230.044418	-4064.095947	71.562302	315.790253	-3937.151855	-298.202637	309.782837	-3867.044678	-669.457458	297.742065	-3714.762939	-736.869568	271.939301	-4036.349854	667.478333	203.287231	-3881.045898	684.562805	219.781372	-3898.728760	715.103455	177.955780	-4000.531738	722.494995	107.637512	-3903.620117	721.825867	245.486603	-4021.420898	742.502563	291.374756
74	2.517733	-4039.803955	60.581532	235.074051	-4031.802734	234.031433	229.685287	-4039.102051	372.566284	223.195328	-4049.696533	583.148743	207.934769	-4059.726318	547.900574	189.211212	-4038.577637	510.536011	56.802139	-4049.348389	241.711761	52.120476	-3982.412842	29.115692	88.548904	-3989.966797	-58.342377	121.494133	-4014.377197	-155.289825	154.286194	-3958.982422	-68.677040	187.864838	-4057.990967	550.068665	238.887817	-4028.148193	528.684692	361.566772	-4096.248535	274.509888	438.556641	-4044.160400	53.057850	462.005096	-4058.959961	-46.755432	465.227722	-4069.778076	-145.072937	435.023224	-4008.487305	-79.946358	420.303955	-4052.265137	58.426075	147.193451	-4156.380859	-315.991364	177.646805	-4374.148438	-612.549683	236.115631	-4310.829102	-783.568726	231.763977	-4028.566406	62.521980	314.319855	-3907.594971	-307.530701	306.851990	-3851.788086	-679.677979	296.102875	-3702.741211	-749.787109	263.889221	-4023.187744	657.938416	202.416183	-3879.299072	715.377563	224.293930	-3903.081055	740.637817	182.261887	-4000.484863	721.759033	108.819801	-3911.681396	744.729004	249.351608	-4031.613281	732.521851	291.107422
